<?xml version="1.0" standalone="no"?>
<!DOCTYPE svg PUBLIC "-//W3C//DTD SVG 20010904//EN"
 "http://www.w3.org/TR/2001/REC-SVG-20010904/DTD/svg10.dtd">
<svg version="1.0" xmlns="http://www.w3.org/2000/svg"
 width="316.000000pt" height="316.000000pt" viewBox="0 0 316.000000 316.000000"
 preserveAspectRatio="xMidYMid meet">
<metadata>
Created by potrace 1.14, written by Peter Selinger 2001-2017
</metadata>
<g transform="translate(0.000000,316.000000) scale(0.100000,-0.100000)"
fill="#000000" stroke="none">
<path d="M1305 3034 c-19 -19 -52 -84 -90 -174 -15 -36 -37 -87 -50 -115 -34
-73 -105 -250 -105 -261 -1 -24 -22 -35 -95 -45 -127 -17 -225 -60 -300 -131
-40 -36 -75 -81 -91 -114 -25 -51 -26 -62 -21 -147 7 -123 36 -199 91 -239 62
-45 129 -59 314 -66 l167 -7 3 -37 c3 -37 3 -38 -32 -38 -64 0 -137 -22 -146
-44 -11 -32 8 -74 41 -88 16 -7 29 -15 29 -18 0 -4 -21 -14 -47 -23 -28 -10
-70 -39 -101 -68 -59 -58 -74 -81 -66 -103 7 -19 64 -36 120 -36 22 0 64 -7
92 -15 46 -14 52 -18 47 -38 -52 -207 -53 -216 -53 -442 1 -207 0 -223 -21
-263 -12 -23 -23 -42 -25 -42 -2 0 -29 11 -61 26 -76 33 -109 30 -113 -12 -5
-56 33 -135 104 -212 84 -92 95 -98 136 -75 18 10 39 25 48 34 8 9 38 29 66
44 l50 28 82 -41 c45 -22 102 -44 127 -48 25 -3 47 -10 50 -13 2 -4 -27 -23
-65 -41 -78 -38 -124 -79 -118 -106 7 -38 54 -49 208 -49 122 0 153 3 188 19
44 20 51 34 67 132 6 42 6 42 58 47 93 10 133 23 193 61 80 52 123 82 160 115
17 15 43 35 58 44 14 10 35 36 47 59 11 22 37 62 58 87 116 148 146 175 224
200 31 11 37 17 37 41 0 59 -63 85 -184 77 -121 -8 -193 -42 -320 -151 l-58
-50 -22 25 c-12 14 -55 113 -95 220 -40 107 -81 213 -92 237 -10 23 -35 106
-54 185 -20 78 -50 184 -66 236 -16 52 -28 100 -25 106 2 7 0 17 -5 22 -10 10
-20 54 -64 268 -14 72 -35 162 -45 200 -12 44 -23 138 -30 255 -16 264 -71
520 -126 581 -21 23 -57 25 -79 3z m-485 -1053 c0 -6 -11 -23 -25 -38 -24 -27
-25 -28 -40 -9 -28 37 -16 52 43 55 12 0 22 -3 22 -8z"/>
</g>
</svg>
